<?xml version="1.0" standalone="no"?>
<!DOCTYPE svg PUBLIC "-//W3C//DTD SVG 20010904//EN"
 "http://www.w3.org/TR/2001/REC-SVG-20010904/DTD/svg10.dtd">
<svg version="1.0" xmlns="http://www.w3.org/2000/svg"
 width="910.000000pt" height="980.000000pt" viewBox="0 0 910.000000 980.000000"
 preserveAspectRatio="xMidYMid meet">

<g transform="translate(0.000000,980.000000) scale(0.100000,-0.100000)"
fill="#fff" stroke="none">
<path d="M4205 9789 c-405 -38 -818 -167 -1158 -361 -817 -468 -1345 -1265
-1453 -2194 -20 -174 -14 -584 11 -739 131 -816 570 -1514 1238 -1966 54 -37
98 -70 98 -75 0 -4 -44 -24 -98 -44 -159 -60 -288 -117 -453 -201 -1218 -616
-2067 -1734 -2314 -3049 -50 -261 -82 -611 -74 -799 3 -85 8 -106 36 -163 38
-77 92 -130 171 -167 47 -22 70 -26 141 -26 71 0 94 4 141 26 79 37 133 90
171 166 31 64 32 69 40 252 4 102 15 249 23 326 164 1444 1197 2648 2640 3079
389 116 748 166 1185 166 480 0 882 -63 1308 -206 573 -192 1063 -494 1483
-914 379 -379 653 -803 834 -1289 138 -373 204 -719 223 -1162 8 -183 9 -188
40 -252 38 -76 92 -129 171 -166 47 -22 70 -26 141 -26 71 0 94 4 141 26 79
37 133 90 171 167 28 57 33 78 36 163 8 188 -24 533 -74 799 -250 1339 -1132
2480 -2389 3089 -137 67 -361 160 -519 216 -79 28 -80 29 -56 44 113 74 288
218 408 335 489 477 774 1049 864 1736 16 127 16 548 -1 670 -75 551 -269
1021 -594 1439 -97 125 -347 379 -467 475 -227 181 -546 361 -813 459 -386
143 -848 204 -1252 166z m585 -714 c998 -158 1752 -957 1849 -1959 63 -643
-170 -1287 -634 -1752 -439 -440 -1054 -673 -1677 -634 -1055 66 -1910 876
-2038 1930 -17 142 -12 418 10 568 146 992 937 1749 1945 1862 116 13 423 4
545 -15z"/>
</g>
</svg>
